<svg width="70" height="69" viewBox="0 0 70 69" fill="none" xmlns="http://www.w3.org/2000/svg">
<g filter="url(#filter0_d_2433_9)">
<rect x="4.56097" y="0.294556" width="60.6204" height="60.6204" rx="16" fill="#168962"/>
<path d="M28.0241 52.3278C26.8895 52.3278 25.8468 52.0518 24.8961 51.4998C23.9761 50.9478 23.2401 50.1964 22.6881 49.2458C22.1361 48.2951 21.8601 47.2524 21.8601 46.1178V43.9098H27.3801V45.9338C27.3801 46.1791 27.4568 46.3784 27.6101 46.5318C27.7635 46.6851 27.9628 46.7618 28.2081 46.7618H48.5401C48.7855 46.7618 48.9848 46.6851 49.1381 46.5318C49.3221 46.3784 49.4141 46.1791 49.4141 45.9338V39.3558C49.4141 39.1411 49.3221 38.9571 49.1381 38.8038C48.9848 38.6198 48.7855 38.5278 48.5401 38.5278H28.0241C26.8895 38.5278 25.8468 38.2518 24.8961 37.6998C23.9761 37.1478 23.2401 36.4118 22.6881 35.4918C22.1361 34.5411 21.8601 33.4984 21.8601 32.3638V25.4178C21.8601 24.2831 22.1361 23.2404 22.6881 22.2898C23.2401 21.3391 23.9761 20.5878 24.8961 20.0358C25.8468 19.4838 26.8895 19.2078 28.0241 19.2078H48.7701C49.9048 19.2078 50.9321 19.4838 51.8521 20.0358C52.8028 20.5878 53.5541 21.3391 54.1061 22.2898C54.6888 23.2404 54.9801 24.2831 54.9801 25.4178V27.6258H49.4141V25.6018C49.4141 25.3564 49.3221 25.1571 49.1381 25.0038C48.9848 24.8504 48.7855 24.7738 48.5401 24.7738H28.2081C27.9628 24.7738 27.7635 24.8504 27.6101 25.0038C27.4568 25.1571 27.3801 25.3564 27.3801 25.6018V32.1798C27.3801 32.3944 27.4568 32.5938 27.6101 32.7778C27.7635 32.9311 27.9628 33.0078 28.2081 33.0078H48.7701C49.9048 33.0078 50.9321 33.2838 51.8521 33.8358C52.8028 34.3878 53.5541 35.1391 54.1061 36.0898C54.6888 37.0098 54.9801 38.0371 54.9801 39.1718V46.1178C54.9801 47.2524 54.6888 48.2951 54.1061 49.2458C53.5541 50.1964 52.8028 50.9478 51.8521 51.4998C50.9321 52.0518 49.9048 52.3278 48.7701 52.3278H28.0241Z" fill="white"/>
<path d="M26.9639 14.1377C21.0364 14.1377 17.1795 18.3716 17.1795 24.3374" stroke="white" stroke-width="4"/>
<path d="M27.9639 6.70483C17.4432 6.70483 10.5977 14.2196 10.5977 24.8083" stroke="white" stroke-width="4"/>
</g>
<defs>
<filter id="filter0_d_2433_9" x="0.560974" y="0.294556" width="68.6204" height="68.6205" filterUnits="userSpaceOnUse" color-interpolation-filters="sRGB">
<feFlood flood-opacity="0" result="BackgroundImageFix"/>
<feColorMatrix in="SourceAlpha" type="matrix" values="0 0 0 0 0 0 0 0 0 0 0 0 0 0 0 0 0 0 127 0" result="hardAlpha"/>
<feOffset dy="4"/>
<feGaussianBlur stdDeviation="2"/>
<feComposite in2="hardAlpha" operator="out"/>
<feColorMatrix type="matrix" values="0 0 0 0 0 0 0 0 0 0 0 0 0 0 0 0 0 0 0.25 0"/>
<feBlend mode="normal" in2="BackgroundImageFix" result="effect1_dropShadow_2433_9"/>
<feBlend mode="normal" in="SourceGraphic" in2="effect1_dropShadow_2433_9" result="shape"/>
</filter>
</defs>
</svg>
