<svg width="232" height="65" fill="none" xmlns="http://www.w3.org/2000/svg"><path d="M60.227 53.675v-26.91c0-1.135.276-2.178.828-3.128a6.113 6.113 0 0 1 2.254-2.254 6.118 6.118 0 0 1 3.128-.828h20.7c1.134 0 2.162.276 3.082.828a6.113 6.113 0 0 1 2.254 2.254c.582.95.874 1.993.874 3.128v26.91H87.78V42.313H65.747v11.362h-5.52zm5.52-16.882H87.78v-9.844a.742.742 0 0 0-.276-.598.753.753 0 0 0-.552-.23H66.575a.916.916 0 0 0-.598.23.809.809 0 0 0-.23.598v9.844zm42.31 16.882-12.052-33.12h5.888l8.372 22.954 8.372-22.954h5.612l8.418 22.954 8.372-22.954h5.888l-12.052 33.12h-4.462l-8.97-24.61-8.97 24.61h-4.416zm55.278 0V26.12h-13.8v-5.566h33.12v5.566h-13.8v27.554h-5.52zm22.393 0v-33.12h5.474v33.12h-5.474zm16.416 0a6.116 6.116 0 0 1-3.128-.828 6.111 6.111 0 0 1-2.254-2.254 6.119 6.119 0 0 1-.828-3.128v-20.7c0-1.135.276-2.178.828-3.128a6.11 6.11 0 0 1 2.254-2.254 6.116 6.116 0 0 1 3.128-.828h26.818v5.566H203.11c-.491 0-.89.153-1.196.46-.307.276-.46.659-.46 1.15v18.768c0 .49.153.889.46 1.196.306.276.705.414 1.196.414h25.852v5.566h-26.818z" fill="#fff"/><path d="M28.296.317c14.966-.074 28.224 11.81 27.777 26.77-.363 12.146.344 23.104 2.48 34.02-8.672-2.715-16.55-3.61-25.374-3.004C15.955 59.288.295 46.44.029 29.178l-.016-.904C-.291 12.71 12.728.394 28.296.317zm-2.175 20.238a6.118 6.118 0 0 0-3.128.828 6.227 6.227 0 0 0-2.208 2.254 6.12 6.12 0 0 0-.828 3.128v6.946c0 1.134.276 2.177.828 3.128a6.344 6.344 0 0 0 2.208 2.208 6.12 6.12 0 0 0 3.128.828h20.516c.245 0 .445.091.598.275a.697.697 0 0 1 .276.553v6.577a.742.742 0 0 1-.276.599.81.81 0 0 1-.598.23H26.305a.809.809 0 0 1-.598-.23.81.81 0 0 1-.23-.599v-2.023h-5.52v2.208a6.12 6.12 0 0 0 .828 3.128 6.227 6.227 0 0 0 2.208 2.254 6.12 6.12 0 0 0 3.128.828h20.746c1.135 0 2.162-.276 3.082-.828a6.114 6.114 0 0 0 2.254-2.254c.583-.951.874-1.994.874-3.128v-6.947c0-1.134-.291-2.162-.874-3.082a6.114 6.114 0 0 0-2.254-2.254c-.92-.552-1.947-.828-3.082-.828H26.305a.81.81 0 0 1-.598-.23.917.917 0 0 1-.23-.598v-6.578c0-.245.077-.444.23-.598a.809.809 0 0 1 .598-.229h20.332a.81.81 0 0 1 .598.23.741.741 0 0 1 .276.597v2.024h5.566v-2.207a5.872 5.872 0 0 0-.874-3.128 6.114 6.114 0 0 0-2.254-2.254c-.92-.552-1.947-.828-3.082-.828H26.121zm-1.06-14.503c-5.758 0-10.644 2.068-14.082 5.707-3.428 3.627-5.285 8.67-5.285 14.396h4c0-4.861 1.567-8.87 4.192-11.648 2.614-2.766 6.412-4.455 11.175-4.455v-4zm0 7.432c-3.462 0-6.451 1.25-8.569 3.49-2.106 2.228-3.216 5.295-3.216 8.71h4c0-2.55.82-4.584 2.123-5.963 1.293-1.368 3.196-2.237 5.662-2.237v-4z" fill="#168962"/></svg>