<svg width="232" height="65" fill="none" xmlns="http://www.w3.org/2000/svg"><path d="M60.227 53.675v-26.91c0-1.135.276-2.178.828-3.128a6.113 6.113 0 0 1 2.254-2.254 6.118 6.118 0 0 1 3.128-.828h20.7c1.134 0 2.162.276 3.082.828a6.113 6.113 0 0 1 2.254 2.254c.582.95.874 1.993.874 3.128v26.91H87.78V42.313H65.747v11.362h-5.52zm5.52-16.882H87.78v-9.844a.742.742 0 0 0-.276-.598.753.753 0 0 0-.552-.23H66.575a.916.916 0 0 0-.598.23.809.809 0 0 0-.23.598v9.844zm42.31 16.882-12.052-33.12h5.888l8.372 22.954 8.372-22.954h5.612l8.418 22.954 8.372-22.954h5.888l-12.052 33.12h-4.462l-8.97-24.61-8.97 24.61h-4.416zm55.278 0V26.12h-13.8v-5.566h33.12v5.566h-13.8v27.554h-5.52zm22.393 0v-33.12h5.474v33.12h-5.474zm16.416 0a6.116 6.116 0 0 1-3.128-.828 6.111 6.111 0 0 1-2.254-2.254 6.119 6.119 0 0 1-.828-3.128v-20.7c0-1.135.276-2.178.828-3.128a6.11 6.11 0 0 1 2.254-2.254 6.116 6.116 0 0 1 3.128-.828h26.818v5.566H203.11c-.491 0-.89.153-1.196.46-.307.276-.46.659-.46 1.15v18.768c0 .49.153.889.46 1.196.306.276.705.414 1.196.414h25.852v5.566h-26.818z" fill="#fff"/><path d="M28.296.318c14.966-.074 28.225 11.81 27.778 26.769-.363 12.146.343 23.104 2.48 34.02-8.672-2.715-16.551-3.61-25.375-3.003C15.955 59.288.295 46.439.03 29.177l-.017-.902C-.292 12.708 12.728.395 28.296.317z" fill="#168962"/><path d="M25.121 53.675a6.119 6.119 0 0 1-3.128-.828 6.226 6.226 0 0 1-2.208-2.254 6.119 6.119 0 0 1-.828-3.128v-2.208h5.52v2.024a.81.81 0 0 0 .23.598.81.81 0 0 0 .598.23h20.332a.809.809 0 0 0 .598-.23.742.742 0 0 0 .276-.598v-6.578a.696.696 0 0 0-.276-.552.742.742 0 0 0-.598-.276H25.121a6.119 6.119 0 0 1-3.128-.828 6.343 6.343 0 0 1-2.208-2.208 6.119 6.119 0 0 1-.828-3.128v-6.946c0-1.135.276-2.178.828-3.128a6.226 6.226 0 0 1 2.208-2.254 6.119 6.119 0 0 1 3.128-.828h20.746c1.135 0 2.162.276 3.082.828a6.113 6.113 0 0 1 2.254 2.254c.583.95.874 1.993.874 3.128v2.208h-5.566v-2.024a.742.742 0 0 0-.276-.598.809.809 0 0 0-.598-.23H25.305a.809.809 0 0 0-.598.23.809.809 0 0 0-.23.598v6.578c0 .214.077.414.23.598a.81.81 0 0 0 .598.23h20.562c1.135 0 2.162.276 3.082.828a6.113 6.113 0 0 1 2.254 2.254c.583.92.874 1.947.874 3.082v6.946a5.872 5.872 0 0 1-.874 3.128 6.113 6.113 0 0 1-2.254 2.254c-.92.552-1.947.828-3.082.828H25.121z" fill="#fff"/><path d="M24.061 15.485c-5.927 0-9.784 4.233-9.784 10.2M25.061 8.052c-10.52 0-17.366 7.514-17.366 18.103" stroke="#fff" stroke-width="4"/></svg>