<svg width="210" height="62" fill="none" xmlns="http://www.w3.org/2000/svg"><path d="M59.88 51.95v-23.6c0-.96.226-1.826.68-2.6a5.29 5.29 0 0 1 1.88-1.88c.8-.48 1.68-.72 2.64-.72h18.36c.96 0 1.84.24 2.64.72.8.454 1.426 1.08 1.88 1.88.48.774.72 1.64.72 2.6v23.6h-4.36V41.87H64.2v10.08h-4.32zm4.32-14.4h20.12v-9.08a.926.926 0 0 0-.28-.68.871.871 0 0 0-.68-.32H65.2c-.267 0-.507.107-.72.32a.926.926 0 0 0-.28.68v9.08zm37.31 14.4-10.48-28.8h4.6l7.64 20.96 7.64-20.96h4.56l7.68 20.96 7.6-20.96h4.64l-10.48 28.8h-3.56l-8.16-22.4-8.16 22.4h-3.52zm48.308 0V27.47h-12.24v-4.32h28.8v4.32h-12.24v24.48h-4.32zm19.432 0v-28.8h4.32v28.8h-4.32zm13.874 0c-.96 0-1.84-.226-2.64-.68a5.761 5.761 0 0 1-1.88-1.88c-.453-.8-.68-1.68-.68-2.64v-18.4c0-.96.227-1.826.68-2.6a5.293 5.293 0 0 1 1.88-1.88c.8-.48 1.68-.72 2.64-.72h23.52v4.32h-22.92a1.47 1.47 0 0 0-1.08.44c-.266.267-.4.614-.4 1.04v17.2c0 .427.134.787.4 1.08.294.267.654.4 1.08.4h22.92v4.32h-23.52zM28.297.594C43.263.52 56.52 12.404 56.074 27.364c-.363 12.145.343 23.103 2.48 34.02-8.672-2.715-16.55-3.61-25.374-3.004C15.956 59.564.295 46.715.03 29.453l-.017-.902C-.292 12.986 12.729.67 28.297.594zM27.8 23.15c-.934 0-1.8.241-2.6.721-.8.453-1.44 1.08-1.92 1.88-.453.773-.68 1.64-.68 2.6v6.16c0 .96.227 1.84.68 2.64.48.773 1.12 1.4 1.92 1.88.8.453 1.667.68 2.6.68h18.28c.267 0 .493.093.68.28.186.187.28.426.28.72v5.92c0 .266-.094.506-.28.72a.925.925 0 0 1-.68.28H27.92c-.267 0-.507-.094-.72-.28a1.065 1.065 0 0 1-.28-.72v-1.56H22.6v1.68c0 .96.227 1.84.68 2.64.48.773 1.12 1.4 1.92 1.88.8.453 1.666.68 2.6.68h18.4c.933 0 1.8-.227 2.6-.68a5.291 5.291 0 0 0 1.88-1.88c.48-.8.72-1.68.72-2.64v-6.16c0-.96-.24-1.827-.72-2.6a4.901 4.901 0 0 0-1.88-1.88c-.8-.48-1.667-.72-2.6-.72H27.92c-.267 0-.507-.094-.72-.28a.974.974 0 0 1-.28-.72v-5.92c0-.267.093-.494.28-.68.213-.213.453-.32.72-.32h18.16c.267 0 .493.107.68.32.186.186.28.413.28.68v1.56h4.36v-1.68c0-.96-.24-1.827-.72-2.6a4.898 4.898 0 0 0-1.88-1.88c-.8-.48-1.667-.72-2.6-.72H27.8zM26.06 7.328c-5.758 0-10.643 2.069-14.082 5.707-3.427 3.627-5.284 8.67-5.284 14.396h4c0-4.861 1.567-8.87 4.192-11.648 2.614-2.766 6.412-4.455 11.174-4.455v-4zm0 7.433c-3.461 0-6.45 1.249-8.568 3.489-2.106 2.229-3.216 5.295-3.216 8.71h4c0-2.55.82-4.583 2.123-5.963 1.293-1.368 3.196-2.236 5.662-2.236v-4z" fill="#fff"/></svg>