<svg width="227" height="59" fill="none" xmlns="http://www.w3.org/2000/svg"><path d="M55.227 47.984v-26.91c0-1.134.276-2.177.828-3.128a6.113 6.113 0 0 1 2.254-2.254 6.119 6.119 0 0 1 3.128-.828h20.7c1.135 0 2.162.276 3.082.829a6.113 6.113 0 0 1 2.254 2.254c.583.95.874 1.993.874 3.128v26.91h-5.566V36.622H60.747v11.361h-5.52zm5.52-16.882h22.034V21.26a.742.742 0 0 0-.276-.599.753.753 0 0 0-.552-.23H61.575a.916.916 0 0 0-.598.23.81.81 0 0 0-.23.599v9.843zm42.31 16.882-12.052-33.12h5.888l8.372 22.954 8.372-22.953h5.612l8.418 22.953 8.372-22.953h5.888l-12.052 33.12h-4.462l-8.97-24.61-8.97 24.61h-4.416zm55.279 0V20.43h-13.8v-5.566h33.12v5.566h-13.8v27.554h-5.52zm22.392 0v-33.12h5.474v33.12h-5.474zm16.416 0a6.118 6.118 0 0 1-3.128-.828 6.11 6.11 0 0 1-2.254-2.253 6.118 6.118 0 0 1-.828-3.128v-20.7c0-1.135.276-2.178.828-3.128a6.11 6.11 0 0 1 2.254-2.254 6.118 6.118 0 0 1 3.128-.829h26.818v5.566H198.11c-.491 0-.889.154-1.196.46-.307.276-.46.66-.46 1.15V40.81c0 .49.153.889.46 1.196.307.276.705.413 1.196.413h25.852v5.566h-26.818zM20.122 47.984a6.118 6.118 0 0 1-3.128-.828 6.226 6.226 0 0 1-2.208-2.253 6.118 6.118 0 0 1-.829-3.128v-2.209h5.52v2.024a.81.81 0 0 0 .23.598.81.81 0 0 0 .598.23h20.333a.809.809 0 0 0 .598-.23.742.742 0 0 0 .276-.598v-6.578a.696.696 0 0 0-.276-.551.742.742 0 0 0-.598-.276H20.122a6.118 6.118 0 0 1-3.128-.829 6.343 6.343 0 0 1-2.208-2.208 6.118 6.118 0 0 1-.829-3.128v-6.945c0-1.135.276-2.178.829-3.128a6.226 6.226 0 0 1 2.208-2.254 6.118 6.118 0 0 1 3.128-.829h20.745c1.135 0 2.163.276 3.083.829a6.113 6.113 0 0 1 2.253 2.254c.583.95.874 1.993.874 3.128v2.207h-5.566V21.26a.742.742 0 0 0-.276-.599.809.809 0 0 0-.597-.23H20.306a.81.81 0 0 0-.599.23.81.81 0 0 0-.23.599v6.578c0 .214.077.413.23.598a.81.81 0 0 0 .598.23h20.563c1.134 0 2.161.276 3.081.828a6.113 6.113 0 0 1 2.255 2.254c.582.92.873 1.947.873 3.081v6.947a5.872 5.872 0 0 1-.873 3.128 6.113 6.113 0 0 1-2.255 2.254c-.92.552-1.947.828-3.081.828H20.12z" fill="#243D51"/><path d="M19.061 9.794c-5.927 0-9.784 4.234-9.784 10.2M20.061 2.362c-10.52 0-17.366 7.514-17.366 18.103" stroke="#243D51" stroke-width="4"/></svg>