<svg width="227" height="59" fill="none" xmlns="http://www.w3.org/2000/svg"><path d="M54.871 47.675v-26.91c0-1.135.276-2.178.828-3.128a6.113 6.113 0 0 1 2.255-2.254 6.118 6.118 0 0 1 3.127-.828h20.7c1.135 0 2.162.276 3.082.828a6.113 6.113 0 0 1 2.255 2.254c.582.95.874 1.993.874 3.128v26.91h-5.567V36.313H60.392v11.362h-5.52zm5.52-16.882h22.035v-9.844a.742.742 0 0 0-.276-.598.752.752 0 0 0-.553-.23H61.22a.916.916 0 0 0-.599.23.809.809 0 0 0-.23.598v9.844zm42.31 16.882-12.052-33.12h5.888l8.372 22.954 8.372-22.954h5.612l8.418 22.954 8.372-22.954h5.888l-12.052 33.12h-4.462l-8.97-24.61-8.97 24.61h-4.416zm55.279 0V20.12h-13.8v-5.566h33.12v5.566h-13.8v27.554h-5.52zm22.392 0v-33.12h5.474v33.12h-5.474zm16.416 0a6.121 6.121 0 0 1-3.128-.828 6.119 6.119 0 0 1-2.254-2.254 6.119 6.119 0 0 1-.828-3.128v-20.7c0-1.135.276-2.178.828-3.128a6.118 6.118 0 0 1 2.254-2.254 6.121 6.121 0 0 1 3.128-.828h26.818v5.566h-25.852c-.49 0-.889.153-1.196.46-.306.276-.46.659-.46 1.15v18.768c0 .49.154.889.46 1.196.307.276.706.414 1.196.414h25.852v5.566h-26.818zM19.766 47.675a6.118 6.118 0 0 1-3.128-.828 6.226 6.226 0 0 1-2.208-2.254 6.119 6.119 0 0 1-.828-3.128v-2.208h5.52v2.024c0 .245.077.444.23.598.153.153.353.23.598.23h20.332a.81.81 0 0 0 .598-.23.742.742 0 0 0 .276-.598v-6.578a.696.696 0 0 0-.276-.552.742.742 0 0 0-.598-.276H19.766a6.118 6.118 0 0 1-3.128-.828 6.343 6.343 0 0 1-2.208-2.208 6.119 6.119 0 0 1-.828-3.128v-6.946c0-1.135.276-2.178.828-3.128a6.226 6.226 0 0 1 2.208-2.254 6.118 6.118 0 0 1 3.128-.828h20.746c1.135 0 2.162.276 3.082.828a6.113 6.113 0 0 1 2.254 2.254c.583.95.874 1.993.874 3.128v2.208h-5.566v-2.024a.742.742 0 0 0-.276-.598.809.809 0 0 0-.598-.23H19.95a.809.809 0 0 0-.598.23.809.809 0 0 0-.23.598v6.578c0 .214.077.414.23.598.153.153.353.23.598.23h20.562c1.135 0 2.162.276 3.082.828a6.113 6.113 0 0 1 2.254 2.254c.583.92.874 1.947.874 3.082v6.946a5.873 5.873 0 0 1-.874 3.128 6.114 6.114 0 0 1-2.254 2.254c-.92.552-1.947.828-3.082.828H19.766z" fill="#1F4337"/><path d="M18.706 9.484c-5.928 0-9.785 4.234-9.785 10.2M19.706 2.052C9.186 2.052 2.34 9.566 2.34 20.155" stroke="#1F4337" stroke-width="4"/></svg>