<svg width="227" height="59" viewBox="0 0 227 59" fill="none" xmlns="http://www.w3.org/2000/svg">
<path d="M54.8715 47.6746V20.7646C54.8715 19.6299 55.1475 18.5872 55.6995 17.6366C56.2515 16.6859 57.0028 15.9346 57.9535 15.3826C58.9042 14.8306 59.9468 14.5546 61.0815 14.5546H81.7815C82.9162 14.5546 83.9435 14.8306 84.8635 15.3826C85.8142 15.9346 86.5655 16.6859 87.1175 17.6366C87.7002 18.5872 87.9915 19.6299 87.9915 20.7646V47.6746H82.4255V36.3126H60.3915V47.6746H54.8715ZM60.3915 30.7926H82.4255V20.9486C82.4255 20.7032 82.3335 20.5039 82.1495 20.3506C81.9962 20.1972 81.8122 20.1206 81.5975 20.1206H61.2195C61.0048 20.1206 60.8055 20.1972 60.6215 20.3506C60.4682 20.5039 60.3915 20.7032 60.3915 20.9486V30.7926ZM102.701 47.6746L90.6494 14.5546H96.5374L104.909 37.5086L113.281 14.5546H118.893L127.311 37.5086L135.683 14.5546H141.571L129.519 47.6746H125.057L116.087 23.0646L107.117 47.6746H102.701ZM157.98 47.6746V20.1206H144.18V14.5546H177.3V20.1206H163.5V47.6746H157.98ZM180.372 47.6746V14.5546H185.846V47.6746H180.372ZM196.788 47.6746C195.654 47.6746 194.611 47.3986 193.66 46.8466C192.71 46.2946 191.958 45.5432 191.406 44.5926C190.854 43.6419 190.578 42.5992 190.578 41.4646V20.7646C190.578 19.6299 190.854 18.5872 191.406 17.6366C191.958 16.6859 192.71 15.9346 193.66 15.3826C194.611 14.8306 195.654 14.5546 196.788 14.5546H223.606V20.1206H197.754C197.264 20.1206 196.865 20.2739 196.558 20.5806C196.252 20.8566 196.098 21.2399 196.098 21.7306V40.4986C196.098 40.9892 196.252 41.3879 196.558 41.6946C196.865 41.9706 197.264 42.1086 197.754 42.1086H223.606V47.6746H196.788Z" fill="#1F4337"/>
<path d="M19.766 47.6746C18.6313 47.6746 17.5886 47.3986 16.638 46.8466C15.718 46.2946 14.982 45.5432 14.43 44.5926C13.878 43.6419 13.602 42.5992 13.602 41.4646V39.2566H19.122V41.2806C19.122 41.5259 19.1986 41.7252 19.352 41.8786C19.5053 42.0319 19.7046 42.1086 19.95 42.1086H40.282C40.5273 42.1086 40.7266 42.0319 40.88 41.8786C41.064 41.7252 41.156 41.5259 41.156 41.2806V34.7026C41.156 34.4879 41.064 34.3039 40.88 34.1506C40.7266 33.9666 40.5273 33.8746 40.282 33.8746H19.766C18.6313 33.8746 17.5886 33.5986 16.638 33.0466C15.718 32.4946 14.982 31.7586 14.43 30.8386C13.878 29.8879 13.602 28.8452 13.602 27.7106V20.7646C13.602 19.6299 13.878 18.5872 14.43 17.6366C14.982 16.6859 15.718 15.9346 16.638 15.3826C17.5886 14.8306 18.6313 14.5546 19.766 14.5546H40.512C41.6466 14.5546 42.674 14.8306 43.594 15.3826C44.5446 15.9346 45.296 16.6859 45.848 17.6366C46.4306 18.5872 46.722 19.6299 46.722 20.7646V22.9726H41.156V20.9486C41.156 20.7032 41.064 20.5039 40.88 20.3506C40.7266 20.1972 40.5273 20.1206 40.282 20.1206H19.95C19.7046 20.1206 19.5053 20.1972 19.352 20.3506C19.1986 20.5039 19.122 20.7032 19.122 20.9486V27.5266C19.122 27.7412 19.1986 27.9406 19.352 28.1246C19.5053 28.2779 19.7046 28.3546 19.95 28.3546H40.512C41.6466 28.3546 42.674 28.6306 43.594 29.1826C44.5446 29.7346 45.296 30.4859 45.848 31.4366C46.4306 32.3566 46.722 33.3839 46.722 34.5186V41.4646C46.722 42.5992 46.4306 43.6419 45.848 44.5926C45.296 45.5432 44.5446 46.2946 43.594 46.8466C42.674 47.3986 41.6466 47.6746 40.512 47.6746H19.766Z" fill="#1F4337"/>
<path d="M18.7057 9.48448C12.7783 9.48448 8.92139 13.7184 8.92139 19.6842" stroke="#1F4337" stroke-width="4"/>
<path d="M19.7057 2.05164C9.18508 2.05164 2.33954 9.56637 2.33954 20.1551" stroke="#1F4337" stroke-width="4"/>
</svg>
